<svg xmlns="http://www.w3.org/2000/svg" width="13.584" height="13.584" viewBox="0 0 13.584 13.584">
    <path id="ce745811-7fe5-45e5-86f3-78f1b00dd718" fill="#fff" d="M13.573 5.426a1.36 1.36 0 0 0-1.358-1.359h-.878L7.608.337a1.171 1.171 0 0 0-1.654 0l-3.728 3.73h-.878A1.359 1.359 0 0 0 .7 6.618l1.06 5.322a2.043 2.043 0 0 0 2 1.639H9.8a2.043 2.043 0 0 0 2-1.639l1.064-5.323a1.36 1.36 0 0 0 .709-1.191zM6.434.818a.491.491 0 0 1 .694 0l3.248 3.249h-7.19zM1.348 4.746h10.867a.679.679 0 0 1 0 1.359H1.348a.679.679 0 1 1 0-1.359zm9.788 7.061A1.362 1.362 0 0 1 9.8 12.9H3.758a1.362 1.362 0 0 1-1.332-1.093l-1-5.022H12.14zm-4.694-.946V8.823a.34.34 0 0 1 .679 0v2.038a.34.34 0 0 1-.679 0zm-1.7 0V8.823a.34.34 0 0 1 .679 0v2.038a.34.34 0 0 1-.679 0zm3.4 0V8.823a.34.34 0 1 1 .679 0v2.038a.34.34 0 0 1-.679 0z" transform="translate(.011 .005)"/>
</svg>
