<?xml version="1.0" encoding="utf-8"?>
<!-- Generator: Adobe Illustrator 23.0.1, SVG Export Plug-In . SVG Version: 6.00 Build 0)  -->
<svg version="1.1" xmlns="http://www.w3.org/2000/svg" xmlns:xlink="http://www.w3.org/1999/xlink" x="0px" y="0px"
	 viewBox="0 0 336.2 140.4" style="enable-background:new 0 0 336.2 140.4;" xml:space="preserve">
<style type="text/css">
	.st0{opacity:0.5;}
	.st1{display:none;}
</style>
<g id="Layer_1">
	<g>
		<g>
			<path d="M278.3,84.5c-4.8,0-8.6-3.9-8.6-8.6c0-4.8,3.9-8.6,8.6-8.6s8.6,3.9,8.6,8.6C286.9,80.6,283,84.5,278.3,84.5z M278.3,68.3
				c-4.1,0-7.5,3.4-7.5,7.5c0,4.1,3.4,7.5,7.5,7.5s7.5-3.4,7.5-7.5C285.8,71.7,282.4,68.3,278.3,68.3z"/>
		</g>
		<g>
			<path d="M278.2,77.8c-1,0-1.8-0.8-1.8-1.8s0.8-1.8,1.8-1.8s1.8,0.8,1.8,1.8S279.2,77.8,278.2,77.8z M278.2,74.7
				c-0.7,0-1.3,0.6-1.3,1.3c0,0.7,0.6,1.3,1.3,1.3c0.7,0,1.3-0.6,1.3-1.3C279.4,75.2,278.9,74.7,278.2,74.7z"/>
		</g>
		<g>
			<path d="M274.4,82l0.5-4.8l-3.7-3.2l4.8-1l1.9-4.5l2.4,4.2l4.8,0.4l-3.3,3.6l1.1,4.7l-4.4-2L274.4,82z M273.4,74.6l2.5,2.2
				l-0.4,3.3l2.9-1.7l3.1,1.4l-0.8-3.3L283,74l-3.3-0.3l-1.7-2.9l-1.3,3.1L273.4,74.6z"/>
		</g>
	</g>
	<path d="M50.6,75.4c0-15.2,12.3-27.5,27.5-27.5c9.8,0,18.4,5.1,23.3,12.9c-4.7-9.6-14.5-16.2-25.9-16.2
		c-15.9,0-28.8,12.9-28.8,28.8c0,13.7,9.6,25.1,22.4,28C58.4,97.6,50.6,87.4,50.6,75.4z"/>
	<path d="M18.7,36c0,0-11.1,3.8-12.6,17.9c-1.5,14.1,0-28.6,0-28.6S7.2,28.3,18.7,36z"/>
	<path d="M11.1,59.4c0,0-6.6,32.4,33.7,30.7c0,0-43.1,12.1-40.3-30.7H11.1z"/>
	<path d="M318.7,42.8c0,0-17.5-9.9-90.3-8.4c0,0-22.9-21.7-65.9-27.1c0,0-41.2-3.4-96.1,14.9c0,0-16.8,6.1-43.1,11.8
		c0,0-13-8.4-14.5-13.7c0,0,13.6,5,45-2.7c0,0,72.9-26.6,126.9-14.5c0,0,32,6.5,52.2,22.1C232.9,25.3,290.5,24.1,318.7,42.8z"/>
	<path d="M330.5,59.3c0,0-3-7.2-22.1-8c0,0-0.6-2.2-6.1-7.6C302.3,43.7,321.3,39.5,330.5,59.3z"/>
	<path d="M152.5,36.3H218c0,0-28.2-24-54.3-22.9c0,0,28.8,5.7,36.4,17.5L152.5,36.3z"/>
	<path d="M144.1,36.3V16.5c0,0-37.4-1.5-61.4,8.8c0,0,18.3-14.1,64.4-13.7L144.1,36.3z"/>
	<path d="M330.5,63c0,0-21.3,20.3,5.8,28.6c0,0-17.5,0.1-22.5,0C313.8,91.7,313,64.9,330.5,63z"/>
	<path d="M256,52.2L256,52.2c-51.8-23-92.7,20.4-159.4-9.4c0,0,39.2,58.6,137.3,27.2c0,0-43,29.8-116.5,2.9
		c0,0,78.1,42.6,135.6,18.2l0,0c4,5,9.6,8.7,16.1,10.1c-7-2.4-12.7-7.6-15.8-14.1c-8.7-18.1,4.5-39.3,24.8-39.3
		c9.8,0,18.4,5.1,23.3,12.9C292.9,43.4,270.1,39.2,256,52.2z"/>
	<path class="st0" d="M278.3,51.8c-13.2,0-24,10.8-24,24s10.8,24,24,24c13.2,0,24-10.8,24-24S291.5,51.8,278.3,51.8z M278.3,92.3
		c-9.1,0-16.4-7.4-16.4-16.4c0-9.1,7.4-16.4,16.4-16.4c9.1,0,16.4,7.4,16.4,16.4C294.7,84.9,287.3,92.3,278.3,92.3z M290.1,59.9
		c-3-2.4-6.2-3.8-8.8-4.3c9.1,0.6,16.8,7.8,17.9,17.3l-1.8,0.1C296.8,66.6,293.1,62.3,290.1,59.9z"/>
	<path d="M278.3,51.8c-13.2,0-24,10.8-24,24s10.8,24,24,24c13.2,0,24-10.8,24-24S291.5,51.8,278.3,51.8z M278.3,92.3
		c-9.1,0-16.4-7.4-16.4-16.4c0-9.1,7.4-16.4,16.4-16.4c9.1,0,16.4,7.4,16.4,16.4C294.7,84.9,287.3,92.3,278.3,92.3z M290.1,59.9
		c-3-2.4-6.2-3.8-8.8-4.3c9.1,0.6,16.8,7.8,17.9,17.3l-1.8,0.1C296.8,66.6,293.1,62.3,290.1,59.9z"/>
	<path class="st0" d="M78.3,51.8c-13.2,0-24,10.8-24,24s10.8,24,24,24c13.2,0,24-10.8,24-24S91.5,51.8,78.3,51.8z M78.3,92.3
		c-9.1,0-16.4-7.4-16.4-16.4c0-9.1,7.4-16.4,16.4-16.4c9.1,0,16.4,7.4,16.4,16.4C94.7,84.9,87.3,92.3,78.3,92.3z M90.1,59.9
		c-3-2.4-6.2-3.8-8.8-4.3c9.1,0.6,16.8,7.8,17.9,17.3L97.4,73C96.8,66.6,93.2,62.3,90.1,59.9z"/>
	<path d="M78.3,51.8c-13.2,0-24,10.8-24,24s10.8,24,24,24c13.2,0,24-10.8,24-24S91.5,51.8,78.3,51.8z M78.3,92.3
		c-9.1,0-16.4-7.4-16.4-16.4c0-9.1,7.4-16.4,16.4-16.4c9.1,0,16.4,7.4,16.4,16.4C94.7,84.9,87.3,92.3,78.3,92.3z M90.1,59.9
		c-3-2.4-6.2-3.8-8.8-4.3c9.1,0.6,16.8,7.8,17.9,17.3L97.4,73C96.8,66.6,93.2,62.3,90.1,59.9z"/>
	<g>
		<g>
			<path d="M78.4,84.3c-4.8,0-8.6-3.9-8.6-8.6c0-4.8,3.9-8.6,8.6-8.6c4.8,0,8.6,3.9,8.6,8.6C87,80.5,83.1,84.3,78.4,84.3z
				 M78.4,68.2c-4.1,0-7.5,3.4-7.5,7.5c0,4.1,3.4,7.5,7.5,7.5c4.1,0,7.5-3.4,7.5-7.5C85.9,71.6,82.5,68.2,78.4,68.2z"/>
		</g>
		<g>
			<path d="M78.3,77.6c-1,0-1.8-0.8-1.8-1.8c0-1,0.8-1.8,1.8-1.8c1,0,1.8,0.8,1.8,1.8C80.1,76.8,79.3,77.6,78.3,77.6z M78.3,74.5
				c-0.7,0-1.3,0.6-1.3,1.3c0,0.7,0.6,1.3,1.3,1.3c0.7,0,1.3-0.6,1.3-1.3C79.6,75.1,79,74.5,78.3,74.5z"/>
		</g>
		<g>
			<path d="M74.5,81.9l0.5-4.8l-3.7-3.2l4.8-1l1.9-4.5l2.4,4.2l4.8,0.4l-3.3,3.6l1.1,4.7l-4.4-2L74.5,81.9z M73.5,74.5l2.5,2.2
				L75.7,80l2.9-1.7l3.1,1.4l-0.8-3.3l2.3-2.5l-3.3-0.3l-1.7-2.9l-1.3,3.1L73.5,74.5z"/>
		</g>
	</g>
	<g>
		<path d="M22.3,124.3c-1.8,0.4-3.1,0.4-4,0c-1.8-0.8-2.8-2-2.8-3.5c0-0.5-0.2-0.9-0.6-1.3c-0.5-0.6-1.1-0.9-1.9-0.9
			c-2.1,0-3.5,0.8-3.9,2.2c-0.5,1.2-0.7,3.5-0.7,6.7c0,6.3,1.1,9.8,3.2,10.5c0.7,0.2,1.5,0.3,2.4,0.3c1.6,0,3.2-0.3,4.9-0.9l0.2,1.3
			c-2.7,1.2-4.9,1.8-6.7,1.8c-2.4,0-4-0.1-4.9-0.3c-1.2-0.3-2.4-1-3.7-2.2c-1.2-1-1.7-4.2-1.7-9.4c0-1.4,0-2.7,0.1-3.9
			c0-2.6,1.2-4.8,3.7-6.5c2.2-1.6,4.7-2.3,7.5-2.3c5.9,0,8.9,2.2,8.9,6.6V124.3z"/>
		<path d="M47.6,140.2c-1.6,0.2-2.9,0.2-3.8,0c-0.9-0.2-1.6-0.7-2.3-1.4c-0.5-0.6-0.8-1-0.9-1.4c-1.6,2-3.6,3-6,3c-5.3,0-8-2.3-8-7
			c0-2.4,1-4.2,3.1-5.5c1.2-0.8,3.6-1.7,7.1-2.8c1.4-0.5,2.2-0.9,2.6-1.2c0.6-0.6,0.9-1.5,0.7-2.6c-0.2-2.1-1.4-3.2-3.6-3.3
			c-2.4-0.2-4.5,0.1-6.5,0.9l-0.2-1.3c1.9-1.1,4.3-1.6,7.3-1.6c4.1,0,6.9,0.8,8.4,2.3c1,1,1.5,2.6,1.5,4.6v13.7
			C47.1,138,47.3,139.2,47.6,140.2z M40.2,130.1v-2.5c-0.4,0.2-1.2,0.6-2.4,1.1c-2.9,1.2-4.3,2.8-4.3,4.6c0,2,1.1,3,3.2,3
			c1.8,0,2.9-0.8,3.3-2.3C40.1,133.5,40.2,132.2,40.2,130.1z"/>
		<path d="M73,124.4c-0.7,0.2-1.4,0.2-2.3,0.2c-2.1,0-3.5-0.8-4.2-2.4c0-0.1-0.3-0.8-0.7-2.2c-0.4-0.7-1.2-1-2.5-1
			c-1.7,0-2.8,0.8-3.2,2.3c-0.1,0.5-0.2,1.8-0.2,4v10.7c0,1.1,0,1.8,0.1,2.2c0.1,0.7,0.6,1,1.4,1l-0.4,1.1c-5.2-0.2-7.8-2.6-7.8-7.1
			v-13.6c0-1.2-0.2-2.3-0.5-3.3c1.5-0.3,2.8-0.3,3.8,0c0.6,0.2,1.2,0.5,1.8,0.9c0.7,0.5,1.1,1,1.1,1.5h0.1c1.6-2,3.6-3,5.9-3
			c4.8,0,7.4,1.9,7.6,5.8C73,121.7,73,122.6,73,124.4z"/>
		<path d="M114.9,133.6c0,4.6-3.4,6.9-10.2,6.9c-1.6,0-3.9-0.6-6.7-1.8l0.2-1.3c1.6,0.6,3.7,0.9,6.4,0.9c1.9,0,3-1.3,3.4-3.8
			c0-0.4,0-0.7-0.1-0.9c0-0.7-0.5-1.2-1.2-1.7c-0.4-0.2-1.1-0.6-2.1-1.2l-3.7-2c-3.3-1.8-4.9-4.1-4.9-7c0-1.9,1.3-3.5,3.8-4.8
			c1.8-0.9,3.7-1.3,5.7-1.3c2.9,0,5,0.4,6.3,1.1c1.7,1,2.6,2.8,2.6,5.5v1.8c-0.8,0.2-1.6,0.2-2.3,0.2c-0.7,0-1.3-0.1-1.7-0.2
			c-1.8-0.7-2.6-1.8-2.6-3.5c0-1.4-0.8-2.2-2.5-2.2c-2.4,0-3.6,0.8-3.6,2.3c0,1.2,1,2.4,3.1,3.5l5.5,3c2.9,1.5,4.4,3,4.6,4.6
			C114.9,132.4,114.9,132.9,114.9,133.6z"/>
		<path d="M142.3,140.1c-0.9,0.2-1.8,0.2-2.7,0.2c-0.8,0-1.4-0.1-1.9-0.2c-1.1-0.4-2-1.4-2.6-3c-0.4-1.2-0.7-2.6-0.7-4v-11.3
			c0-1.9-0.9-2.8-2.6-2.8c-1,0-1.9,0.3-2.8,1c-0.9,0.7-1.3,1.4-1.3,2.3v14.8c0.2,1.1,0.7,1.7,1.5,1.7l-0.5,1.5
			c-5.1-0.4-7.7-3.3-7.7-8.6v-28c0-1.1-0.4-2.3-1.1-3.6c0.9-0.1,1.8-0.2,2.6-0.2c0.9,0,1.5,0.1,1.9,0.2c1.1,0.4,2,1.5,2.6,3.4
			c0.4,1.4,0.7,2.9,0.7,4.5v9.2c1.7-0.8,3.6-1.2,5.5-1.2c5.2,0,7.9,2.9,7.9,8.7v12C141.1,137.7,141.5,138.9,142.3,140.1z"/>
		<path d="M167.4,124.3c0.1,1,0.2,2.2,0.2,3.4c0,4.4-0.9,7.4-2.8,9.1c-2,2.4-4.3,3.6-6.9,3.6c-6.9,0-10.4-2.9-10.6-8.7
			c-0.1-3.7,0.1-6.5,0.7-8.3c0.9-2.8,2.7-5,5.5-6.6c1.1-0.6,3.1-0.9,6-0.9c2.5,0,4.5,0.8,5.9,2.5
			C166.7,119.9,167.4,121.8,167.4,124.3z M160.5,135.2c0.1-0.7,0.2-3,0.1-6.8c0-3.3,0-5.5-0.1-6.7c-0.1-2.1-1-3.1-2.5-3
			c-1.2,0-2.2,0.6-3,1.7c-0.6,0.8-0.9,1.5-0.9,2.2v11.9c0,0.9,0.2,1.7,0.6,2.5c0.5,0.9,1.1,1.3,1.9,1.3
			C158.9,138.2,160.2,137.2,160.5,135.2z"/>
		<path d="M212.8,115.9l-9.4,24.5l-3.8-0.2c-1.6-0.2-2.8-0.9-3.6-1.8c-0.7-0.8-1.2-2-1.7-3.6c-0.5-1.6-0.9-3.2-1.4-4.8l-3.8,10.5
			l-3.9-0.2c-1.7-0.6-3-1.6-3.9-3c-0.7-1.1-1.5-3-2.3-5.8l-3.5-11.4c-0.4-1.2-1-2.6-1.8-4.1c1.6-0.2,2.8-0.2,3.8,0
			c2.5,0.5,4.1,1.8,4.7,4.1l4.6,16.6l0.4-3.8c0.7-1.8,1.3-3.6,1.8-5.3c1.3-4,2.1-7.3,2.5-9.8c0.1-0.8,0.2-1.8,0.4-3.1
			c1.1,0.2,2.2,0.9,3.1,2c0.8,1,1.3,2.1,1.7,3.4l4.4,17.4l0.5-4.6l5.9-16.8H212.8z"/>
		<path d="M238.9,124.4c-0.7,0.2-1.4,0.2-2.3,0.2c-2.1,0-3.5-0.8-4.2-2.4c0-0.1-0.3-0.8-0.7-2.2c-0.4-0.7-1.2-1-2.5-1
			c-1.7,0-2.8,0.8-3.2,2.3c-0.1,0.5-0.2,1.8-0.2,4v10.7c0,1.1,0,1.8,0.1,2.2c0.1,0.7,0.6,1,1.4,1l-0.4,1.1c-5.2-0.2-7.8-2.6-7.8-7.1
			v-13.6c0-1.2-0.2-2.3-0.5-3.3c1.5-0.3,2.8-0.3,3.8,0c0.6,0.2,1.2,0.5,1.8,0.9c0.7,0.5,1.1,1,1.1,1.5h0.1c1.6-2,3.6-3,5.9-3
			c4.8,0,7.4,1.9,7.6,5.8C239,121.7,239,122.6,238.9,124.4z"/>
		<path d="M263.6,124.3c0.1,1,0.2,2.2,0.2,3.4c0,4.4-0.9,7.4-2.8,9.1c-2,2.4-4.3,3.6-6.9,3.6c-6.9,0-10.4-2.9-10.6-8.7
			c-0.1-3.7,0.1-6.5,0.7-8.3c0.9-2.8,2.7-5,5.5-6.6c1.1-0.6,3.1-0.9,6-0.9c2.5,0,4.5,0.8,5.9,2.5C263,119.9,263.6,121.8,263.6,124.3
			z M256.8,135.2c0.1-0.7,0.2-3,0.1-6.8c0-3.3,0-5.5-0.1-6.7c-0.1-2.1-1-3.1-2.5-3c-1.2,0-2.2,0.6-3,1.7c-0.6,0.8-0.9,1.5-0.9,2.2
			v11.9c0,0.9,0.2,1.7,0.6,2.5c0.5,0.9,1.1,1.3,1.9,1.3C255.2,138.2,256.5,137.2,256.8,135.2z"/>
		<path d="M290.1,124.3c0.1,1,0.2,2.2,0.2,3.4c0,4.4-0.9,7.4-2.8,9.1c-2,2.4-4.3,3.6-6.9,3.6c-6.9,0-10.4-2.9-10.6-8.7
			c-0.1-3.7,0.1-6.5,0.7-8.3c0.9-2.8,2.7-5,5.5-6.6c1.1-0.6,3.1-0.9,6-0.9c2.5,0,4.5,0.8,5.9,2.5
			C289.5,119.9,290.1,121.8,290.1,124.3z M283.3,135.2c0.1-0.7,0.2-3,0.1-6.8c0-3.3,0-5.5-0.1-6.7c-0.1-2.1-1-3.1-2.5-3
			c-1.2,0-2.2,0.6-3,1.7c-0.6,0.8-0.9,1.5-0.9,2.2v11.9c0,0.9,0.2,1.7,0.6,2.5c0.5,0.9,1.1,1.3,1.9,1.3
			C281.7,138.2,283,137.2,283.3,135.2z"/>
		<path d="M331.2,140.2c-0.9,0.1-1.8,0.2-2.6,0.2c-1.7,0-3-0.5-3.9-1.6c-0.9-1.1-1.4-2.5-1.4-4.2v-14c0-1.6-0.9-2.3-2.6-2.3
			c-0.9,0-1.7,0.2-2.5,0.7c-0.9,0.5-1.4,1.2-1.5,2l-0.1,2.2c0,1,0,5.7,0,14.2c0,0.9,0.4,1.9,1.1,2.9c-0.9,0.1-1.7,0.2-2.6,0.2
			c-1.2,0-2-0.1-2.6-0.4c-0.6-0.3-1.2-0.9-1.7-1.8c-0.6-1.1-0.9-2.3-0.9-3.6v-14c0-1.6-0.9-2.3-2.6-2.3c-0.9,0-1.7,0.2-2.6,0.7
			c-1,0.6-1.5,1.3-1.5,2v16c0,0.9,0.2,2,0.6,3.3c-1.8,0.1-3.1,0.1-3.8,0c-2.3-0.4-3.5-1.5-3.5-3.3v-16.7c0-1.1,0-1.8-0.1-2.2
			c-0.1-0.7-0.6-1-1.4-1l0.4-1.2c3.3,0.1,5.6,1.1,6.8,2.9c1.2-1.9,3.4-2.9,6.6-2.9c3.5,0,5.8,0.9,6.9,2.8c1.2-1.8,3.4-2.8,6.5-2.8
			c5.3,0,7.9,2.3,7.9,7v14.4C330.1,138.3,330.4,139.2,331.2,140.2z"/>
	</g>
</g>
<g id="Layer_2" class="st1">
</g>
</svg>
