<svg xmlns="http://www.w3.org/2000/svg" width="124.62" height="15.635" viewBox="0 0 124.62 15.635">
    <defs>
        <style>
            .cls-1{fill:#161615}
        </style>
    </defs>
    <g id="Group_59" data-name="Group 59" transform="translate(-165.126 -200.027)">
        <g id="Group_53" data-name="Group 53" transform="translate(165.126 200.028)">
            <path id="Path_4896" d="M165.126 487.866V484.6h.1l2.721 2.351a5.9 5.9 0 0 0 2.152.487c1.97 0 3.005-1.015 3.005-2.457 0-1.178-.873-2.112-3.614-3.614-3.168-1.746-4.366-3.025-4.366-4.853 0-2.437 2.416-3.919 5.056-3.919a26.6 26.6 0 0 1 4.487.386v3.081h-.081l-2.863-2.431a5.978 5.978 0 0 0-1.766-.244c-1.4 0-2.315.751-2.315 1.99 0 1.056.69 1.908 3.493 3.492 3.066 1.747 4.589 2.965 4.589 4.833 0 3.35-3.208 4.508-5.889 4.508-1.381 0-3.391-.2-4.711-.345" class="cls-1" data-name="Path 4896" transform="translate(-165.126 -472.577)"/>
            <path id="Path_4897" d="M300.808 489.567h-5.929v-.122l1.462-1.239v-13.035h-2.254l-2.8 2.353h-.087v-3.185h13.28v3.181h-.08l-2.8-2.349h-2.254v13.046l1.462 1.229z" class="cls-1" data-name="Path 4897" transform="translate(-277.965 -474.135)"/>
            <path id="Path_4898" d="M423.948 489.565h-5.015v-.122l1.925-1.6 4.492-12.244-.467-1.259h3.087l5.351 13.852 1.492 1.255v.122h-6.173v-.122l1.433-1.2-1.453-3.9h-5.462l-1.261 3.589 2.053 1.508zm1.868-12.731l-2.335 6.62h4.813z" class="cls-1" data-name="Path 4898" transform="translate(-392.284 -474.133)"/>
            <path id="Path_4899" d="M583.653 484.206v-8.52l-1.462-1.227v-.122h6.092v.122l-1.625 1.369v8.52c0 3.716 1.767 4.528 3.9 4.528 1.563 0 4.163-.447 4.163-4.548v-8.388l-1.767-1.481v-.122h4.3v.122l-1.584 1.32v8.528c0 3.554-1.868 5.462-5.807 5.462-3.35 0-6.214-1.32-6.214-5.564" class="cls-1" data-name="Path 4899" transform="translate(-538.4 -474.135)"/>
            <path id="Path_4900" d="M756.508 489.567h-4.487v-.122l1.706-1.426v-11.508l-1.99-2.051v-.122h3.594L764 484.43l.426.67v-9.107l-1.826-1.533v-.122h4.569v.122l-1.767 1.483v13.624h-.772v-.02l-9.97-11.533v9.872l1.848 1.56z" class="cls-1" data-name="Path 4900" transform="translate(-690.144 -474.135)"/>
            <path id="Path_4901" d="M932.537 474.46v-.122h5.929v.122L937 475.691v12.516l1.462 1.239v.122h-5.929v-.122l1.467-1.228v-12.532z" class="cls-1" data-name="Path 4901" transform="translate(-851.96 -474.135)"/>
            <path id="Path_4902" d="M1025.518 489.567h-4.487v-.122l1.706-1.428v-11.506l-1.99-2.051v-.122h3.594l8.67 10.091.426.67v-9.106l-1.828-1.534v-.122h4.569v.122l-1.766 1.485v13.622h-.772v-.02l-9.97-11.533v9.887l1.848 1.545z" class="cls-1" data-name="Path 4902" transform="translate(-930.908 -474.135)"/>
            <path id="Path_4903" d="M1217.092 488.037h-.142l-1.828-.711a10.743 10.743 0 0 1-4 .711c-4.2 0-8.224-2.741-8.224-7.939 0-5.543 4.954-7.7 8.427-7.7a12.1 12.1 0 0 1 5.218.954v3h-.081l-3.493-2.923a5.591 5.591 0 0 0-1.563-.223c-3.31 0-5.32 2.761-5.32 6.721 0 3.655 1.2 7.33 5.4 7.33a6.451 6.451 0 0 0 2.619-.487v-4.853l-1.665-1.4v-.117h6.112v.122l-1.462 1.238z" class="cls-1" data-name="Path 4903" transform="translate(-1093.935 -472.402)"/>
        </g>
    </g>
</svg>
