<?xml version="1.0" encoding="utf-8"?>
<!-- Generator: Adobe Illustrator 16.0.0, SVG Export Plug-In . SVG Version: 6.00 Build 0)  -->
<!DOCTYPE svg PUBLIC "-//W3C//DTD SVG 1.1//EN" "http://www.w3.org/Graphics/SVG/1.1/DTD/svg11.dtd">
<svg version="1.1" id="Layer_1" xmlns="http://www.w3.org/2000/svg" xmlns:xlink="http://www.w3.org/1999/xlink" x="0px" y="0px"
	 width="124.621px" height="30.996px" viewBox="0 0 124.621 30.996" enable-background="new 0 0 124.621 30.996"
	 xml:space="preserve">
<g id="Group_56" transform="translate(-165.126 -200.027)">
	<g id="Group_53" transform="translate(165.126 200.028)">
		<path id="Path_4896" fill="#06131C" d="M0,15.289v-3.266h0.1l2.721,2.351c0.681,0.296,1.411,0.461,2.152,0.487
			c1.97,0,3.005-1.015,3.005-2.457c0-1.178-0.873-2.112-3.614-3.614C1.196,7.044-0.002,5.765-0.002,3.937
			c0-2.437,2.416-3.919,5.056-3.919c1.504,0.001,3.005,0.131,4.487,0.386v3.081H9.46L6.597,1.054
			C6.024,0.885,5.429,0.803,4.831,0.81c-1.4,0-2.315,0.751-2.315,1.99c0,1.056,0.69,1.908,3.493,3.492
			c3.066,1.747,4.589,2.965,4.589,4.833c0,3.35-3.208,4.508-5.889,4.508c-1.381,0-3.391-0.2-4.711-0.345"/>
		<path id="Path_4897" fill="#06131C" d="M22.843,15.432h-5.929V15.31l1.462-1.239V1.036h-2.254l-2.8,2.353h-0.087V0.204h13.28
			v3.181h-0.08l-2.8-2.349h-2.254v13.046l1.462,1.229L22.843,15.432z"/>
		<path id="Path_4898" fill="#06131C" d="M31.664,15.432h-5.015V15.31l1.925-1.6l4.492-12.244l-0.467-1.259h3.087l5.351,13.852
			l1.492,1.255v0.122h-6.173v-0.122l1.433-1.2l-1.453-3.9h-5.462l-1.261,3.589l2.053,1.508L31.664,15.432z M33.532,2.701
			l-2.335,6.62h4.813L33.532,2.701z"/>
		<path id="Path_4899" fill="#06131C" d="M45.253,10.071v-8.52l-1.462-1.227V0.202h6.092v0.122l-1.625,1.369v8.52
			c0,3.716,1.767,4.528,3.9,4.528c1.563,0,4.163-0.447,4.163-4.548V1.805l-1.767-1.481V0.202h4.3v0.122l-1.584,1.32v8.528
			c0,3.554-1.868,5.462-5.807,5.462c-3.35,0-6.214-1.32-6.214-5.564"/>
		<path id="Path_4900" fill="#06131C" d="M66.365,15.432h-4.488V15.31l1.707-1.426V2.376l-1.991-2.051V0.203h3.594l8.669,10.092
			l0.427,0.67V1.858l-1.826-1.533V0.203h4.568v0.122l-1.768,1.483v13.624h-0.771v-0.02l-9.97-11.533v9.872l1.849,1.56V15.432z"/>
		<path id="Path_4901" fill="#06131C" d="M80.578,0.325V0.203h5.928v0.122l-1.465,1.231v12.516l1.461,1.239v0.122h-5.929v-0.122
			l1.468-1.228V1.551L80.578,0.325z"/>
		<path id="Path_4902" fill="#06131C" d="M94.61,15.432h-4.487V15.31l1.707-1.428V2.376l-1.99-2.051V0.203h3.594l8.67,10.091
			l0.426,0.67V1.858l-1.828-1.534V0.202h4.569v0.122l-1.767,1.485v13.622h-0.771v-0.02l-9.97-11.533v9.887l1.849,1.545L94.61,15.432
			z"/>
		<path id="Path_4903" fill="#06131C" d="M123.158,15.635h-0.143l-1.828-0.711c-1.275,0.489-2.633,0.731-4,0.711
			c-4.199,0-8.225-2.741-8.225-7.939c0-5.543,4.955-7.7,8.428-7.7c1.789-0.072,3.57,0.254,5.218,0.954v3h-0.081l-3.492-2.923
			c-0.508-0.148-1.035-0.223-1.564-0.223c-3.309,0-5.319,2.761-5.319,6.721c0,3.655,1.2,7.33,5.399,7.33
			c0.898,0.021,1.79-0.144,2.619-0.487V9.515l-1.664-1.4V7.998h6.111V8.12l-1.461,1.238L123.158,15.635z"/>
	</g>
	<path id="Path_4907" fill="#06131C" d="M199.738,230.877h-1.775v-8.108h1.775c1.052,0,1.666,0.729,1.666,1.936v4.283
		c0,1.218-0.614,1.887-1.666,1.887 M200.238,224.689c0-0.512-0.175-0.767-0.581-0.767h-0.537v5.808h0.537
		c0.406,0,0.581-0.269,0.581-0.767V224.689z"/>
	<path id="Path_4908" fill="#06131C" d="M205.085,230.877l-0.186-1.584h-1.063l-0.219,1.584h-1.064l1.217-8.108h1.282l1.217,8.108
		H205.085z M204.406,224.9l-0.427,3.311h0.789L204.406,224.9z"/>
	<path id="Path_4909" fill="#06131C" d="M210.323,230.877l-1.228-3.677l-0.406-1.242v4.919h-1.052v-8.108h1.031l1.139,3.713
		l0.373,1.254v-4.967h1.041v8.108H210.323z"/>
	<path id="Rectangle_36" fill="#06131C" d="M213.128,222.769h1.162v8.108h-1.162V222.769z"/>
	<path id="Path_4910" fill="#06131C" d="M217.621,231.023c-0.919,0.031-1.689-0.688-1.721-1.607
		c-0.003-0.086,0.001-0.172,0.011-0.256v-0.719h1.064v0.694c0,0.513,0.207,0.8,0.613,0.8c0.406,0,0.614-0.279,0.614-0.73
		c-0.05-0.745-0.384-1.442-0.932-1.948c-0.735-0.702-1.195-1.644-1.3-2.653c0-1.101,0.57-1.986,1.7-1.986
		c0.914,0.018,1.641,0.771,1.624,1.684c-0.001,0.061-0.005,0.121-0.013,0.18v0.73h-1.052v-0.73c0-0.449-0.186-0.754-0.559-0.754
		c-0.339,0-0.57,0.244-0.57,0.657c0,0.791,0.318,1.181,1,1.985c0.731,0.697,1.173,1.645,1.239,2.654
		c0.135,0.959-0.534,1.848-1.495,1.982c-0.071,0.01-0.143,0.016-0.215,0.018"/>
	<path id="Path_4911" fill="#06131C" d="M223.338,230.877v-3.409h-1.228v3.409h-1.162v-8.108h1.162v3.518h1.228v-3.518h1.162v8.108
		H223.338z"/>
	<path id="Path_4912" fill="#06131C" d="M233.204,230.877h-1.031l-0.601-4.821l-0.669,4.821h-1.018l-1.063-8.108h1.151l0.527,5.418
		l0.689-5.418h0.9l0.613,5.418l0.592-5.418h1.074L233.204,230.877z"/>
	<path id="Path_4913" fill="#06131C" d="M238.112,230.877v-3.409h-1.227v3.409h-1.162v-8.108h1.162v3.518h1.227v-3.518h1.162v8.108
		H238.112z"/>
	<path id="Rectangle_37" fill="#06131C" d="M241.07,222.769h1.162v8.108h-1.162V222.769z"/>
	<path id="Path_4914" fill="#06131C" d="M245.508,231.023c-0.919,0.031-1.689-0.688-1.721-1.606
		c-0.002-0.086,0.001-0.172,0.012-0.257v-0.719h1.063v0.694c0,0.513,0.208,0.8,0.614,0.8c0.405,0,0.612-0.279,0.612-0.73
		c-0.049-0.744-0.383-1.441-0.93-1.948c-0.736-0.702-1.196-1.644-1.301-2.653c0-1.101,0.57-1.986,1.7-1.986
		c0.913,0.018,1.64,0.771,1.624,1.684c-0.001,0.061-0.006,0.121-0.014,0.18v0.73h-1.051v-0.73c0-0.449-0.188-0.754-0.56-0.754
		c-0.341,0-0.571,0.244-0.571,0.657c0,0.791,0.319,1.181,1,1.985c0.73,0.698,1.172,1.645,1.238,2.654
		c0.135,0.959-0.533,1.848-1.492,1.982c-0.072,0.01-0.145,0.016-0.218,0.018"/>
	<path id="Path_4915" fill="#06131C" d="M251.042,230.877l-0.812-3.372l-0.397,1.168v2.2h-1.162v-8.108h1.162v3.811l1.205-3.811
		h1.151l-1.172,3.444l1.217,4.663L251.042,230.877z"/>
	<path id="Path_4916" fill="#06131C" d="M255.491,227.614v3.263h-1.162v-3.263l-1.314-4.846h1.184l0.778,3.399l0.756-3.399h1.151
		L255.491,227.614z"/>
</g>
</svg>
