<svg xmlns="http://www.w3.org/2000/svg" width="124.62" height="30.995" viewBox="0 0 124.62 30.995">
    <g data-name="Group 56">
        <g data-name="Group 53">
            <path d="M0 15.289v-3.266h.1l2.721 2.351a5.9 5.9 0 0 0 2.152.487c1.97 0 3.005-1.015 3.005-2.457 0-1.178-.873-2.112-3.614-3.614C1.196 7.044-.002 5.765-.002 3.937-.002 1.5 2.414.018 5.054.018a26.6 26.6 0 0 1 4.487.386v3.081H9.46L6.597 1.054A5.978 5.978 0 0 0 4.831.81c-1.4 0-2.315.751-2.315 1.99 0 1.056.69 1.908 3.493 3.492 3.066 1.747 4.589 2.965 4.589 4.833 0 3.35-3.208 4.508-5.889 4.508-1.381 0-3.391-.2-4.711-.345" data-name="Path 4896" transform="translate(-165.126 -200.027) translate(165.126 200.028)"/>
            <path d="M22.843 15.432h-5.929v-.122l1.462-1.239V1.036h-2.254l-2.8 2.353h-.087V.204h13.28v3.181h-.08l-2.8-2.349h-2.254v13.046l1.462 1.229z" data-name="Path 4897" transform="translate(-165.126 -200.027) translate(165.126 200.028)"/>
            <path d="M31.664 15.432h-5.015v-.122l1.925-1.6 4.492-12.244-.467-1.259h3.087l5.351 13.852 1.492 1.255v.122h-6.173v-.122l1.433-1.2-1.453-3.9h-5.462l-1.261 3.589 2.053 1.508zm1.868-12.731l-2.335 6.62h4.813z" data-name="Path 4898" transform="translate(-165.126 -200.027) translate(165.126 200.028)"/>
            <path d="M45.253 10.071v-8.52L43.791.324V.202h6.092v.122l-1.625 1.369v8.52c0 3.716 1.767 4.528 3.9 4.528 1.563 0 4.163-.447 4.163-4.548V1.805L54.554.324V.202h4.3v.122l-1.584 1.32v8.528c0 3.554-1.868 5.462-5.807 5.462-3.35 0-6.214-1.32-6.214-5.564" data-name="Path 4899" transform="translate(-165.126 -200.027) translate(165.126 200.028)"/>
            <path d="M66.364 15.432h-4.487v-.122l1.706-1.426V2.376L61.593.325V.203h3.594l8.669 10.092.426.67V1.858L72.456.325V.203h4.569v.122l-1.767 1.483v13.624h-.772v-.02l-9.97-11.533v9.872l1.848 1.56z" data-name="Path 4900" transform="translate(-165.126 -200.027) translate(165.126 200.028)"/>
            <path d="M80.577.325V.203h5.929v.122L85.04 1.556v12.516l1.462 1.239v.122h-5.929v-.122l1.467-1.228V1.551z" data-name="Path 4901" transform="translate(-165.126 -200.027) translate(165.126 200.028)"/>
            <path d="M94.61 15.432h-4.487v-.122l1.706-1.428V2.376L89.839.325V.203h3.594l8.67 10.091.426.67V1.858L100.701.324V.202h4.569v.122l-1.766 1.485v13.622h-.772v-.02l-9.97-11.533v9.887l1.848 1.545z" data-name="Path 4902" transform="translate(-165.126 -200.027) translate(165.126 200.028)"/>
            <path d="M123.157 15.635h-.142l-1.828-.711a10.743 10.743 0 0 1-4 .711c-4.2 0-8.224-2.741-8.224-7.939 0-5.543 4.954-7.7 8.427-7.7a12.1 12.1 0 0 1 5.218.954v3h-.081l-3.493-2.923a5.591 5.591 0 0 0-1.563-.223c-3.31 0-5.32 2.761-5.32 6.721 0 3.655 1.2 7.33 5.4 7.33a6.451 6.451 0 0 0 2.619-.487V9.515l-1.665-1.4v-.117h6.112v.122l-1.462 1.238z" data-name="Path 4903" transform="translate(-165.126 -200.027) translate(165.126 200.028)"/>
        </g>
        <path d="M199.738 230.877h-1.775v-8.109h1.775c1.052 0 1.666.73 1.666 1.936v4.283c0 1.218-.614 1.887-1.666 1.887m.5-6.185c0-.512-.175-.767-.581-.767h-.537v5.808h.537c.406 0 .581-.269.581-.767z" data-name="Path 4907" transform="translate(-165.126 -200.027)"/>
        <path d="M205.085 230.877l-.186-1.584h-1.063l-.219 1.584h-1.064l1.217-8.109h1.282l1.217 8.109zm-.679-5.978l-.427 3.311h.789z" data-name="Path 4908" transform="translate(-165.126 -200.027)"/>
        <path d="M210.323 230.877l-1.228-3.677-.406-1.242v4.919h-1.052v-8.109h1.031l1.139 3.713.373 1.254v-4.967h1.041v8.109z" data-name="Path 4909" transform="translate(-165.126 -200.027)"/>
        <path d="M0 0H1.162V8.109H0z" data-name="Rectangle 36" transform="translate(-165.126 -200.027) translate(213.128 222.768)"/>
        <path d="M217.621 231.022a1.665 1.665 0 0 1-1.71-1.863v-.718h1.064v.694c0 .512.207.8.613.8s.614-.28.614-.731a2.915 2.915 0 0 0-.932-1.948 4.281 4.281 0 0 1-1.3-2.654c0-1.1.57-1.985 1.7-1.985a1.654 1.654 0 0 1 1.611 1.863v.73h-1.052v-.73c0-.45-.186-.754-.559-.754-.339 0-.57.244-.57.657 0 .791.318 1.181 1 1.985a4.034 4.034 0 0 1 1.239 2.654 1.756 1.756 0 0 1-1.71 2" data-name="Path 4910" transform="translate(-165.126 -200.027)"/>
        <path d="M223.338 230.877v-3.409h-1.228v3.409h-1.162v-8.109h1.162v3.519h1.228v-3.519h1.162v8.109z" data-name="Path 4911" transform="translate(-165.126 -200.027)"/>
        <path d="M233.203 230.877h-1.031l-.6-4.821-.669 4.821h-1.017l-1.064-8.109h1.151l.527 5.418.69-5.418h.9l.614 5.418.591-5.418h1.074z" data-name="Path 4912" transform="translate(-165.126 -200.027)"/>
        <path d="M238.112 230.877v-3.409h-1.227v3.409h-1.162v-8.109h1.162v3.519h1.227v-3.519h1.162v8.109z" data-name="Path 4913" transform="translate(-165.126 -200.027)"/>
        <path d="M0 0H1.162V8.109H0z" data-name="Rectangle 37" transform="translate(-165.126 -200.027) translate(241.07 222.768)"/>
        <path d="M245.508 231.022a1.664 1.664 0 0 1-1.709-1.863v-.718h1.063v.694c0 .512.208.8.614.8s.613-.28.613-.731a2.914 2.914 0 0 0-.931-1.948 4.278 4.278 0 0 1-1.3-2.654c0-1.1.571-1.985 1.7-1.985a1.654 1.654 0 0 1 1.611 1.863v.73h-1.052v-.73c0-.45-.187-.754-.559-.754-.34 0-.571.244-.571.657 0 .791.319 1.181 1 1.985a4.036 4.036 0 0 1 1.238 2.654 1.755 1.755 0 0 1-1.71 2" data-name="Path 4914" transform="translate(-165.126 -200.027)"/>
        <path d="M251.042 230.877l-.812-3.372-.397 1.168v2.2h-1.162v-8.109h1.162v3.811l1.205-3.811h1.151l-1.172 3.445 1.217 4.663z" data-name="Path 4915" transform="translate(-165.126 -200.027)"/>
        <path d="M255.491 227.614v3.263h-1.162v-3.263l-1.315-4.846h1.184l.778 3.4.756-3.4h1.151z" data-name="Path 4916" transform="translate(-165.126 -200.027)"/>
    </g>
</svg>
